<svg width="172" height="118" viewBox="0 0 172 118" fill="none" xmlns="http://www.w3.org/2000/svg">
<rect width="172" height="118" fill="#E5E5E5"/>
<g clip-path="url(#clip0_0_1)">
<rect width="172" height="118" fill="white"/>
<g clip-path="url(#clip1_0_1)">
<path d="M55.864 103L37.944 69.72H35.256V103H10.168V12.76H49.72C56.9733 12.76 63.1173 14.04 68.152 16.6C73.1867 19.0747 76.984 22.5307 79.544 26.968C82.104 31.32 83.384 36.2267 83.384 41.688C83.384 47.832 81.6773 53.2507 78.264 57.944C74.936 62.552 70.0293 65.8373 63.544 67.8L83.896 103H55.864ZM35.256 52.568H47.672C51.0853 52.568 53.6453 51.7573 55.352 50.136C57.0587 48.5147 57.912 46.168 57.912 43.096C57.912 40.1947 57.016 37.9333 55.224 36.312C53.5173 34.6053 51 33.752 47.672 33.752H35.256V52.568Z" fill="black"/>
<path d="M134.089 103L116.169 69.72H113.481V103H88.393V12.76H127.945C135.198 12.76 141.342 14.04 146.377 16.6C151.412 19.0747 155.209 22.5307 157.769 26.968C160.329 31.32 161.609 36.2267 161.609 41.688C161.609 47.832 159.902 53.2507 156.489 57.944C153.161 62.552 148.254 65.8373 141.769 67.8L162.121 103H134.089ZM113.481 52.568H125.897C129.31 52.568 131.87 51.7573 133.577 50.136C135.284 48.5147 136.137 46.168 136.137 43.096C136.137 40.1947 135.241 37.9333 133.449 36.312C131.742 34.6053 129.225 33.752 125.897 33.752H113.481V52.568Z" fill="#F90D0D"/>
</g>
</g>
<defs>
<clipPath id="clip0_0_1">
<rect width="172" height="118" fill="white"/>
</clipPath>
<clipPath id="clip1_0_1">
<rect width="163" height="114" fill="white" transform="translate(3 11)"/>
</clipPath>
</defs>
</svg>
