<svg width="239" height="209" viewBox="0 0 239 209" fill="none" xmlns="http://www.w3.org/2000/svg">
<g clip-path="url(#clip0_0_1)">
<rect width="239" height="209" fill="black"/>
<path d="M90.864 148L72.944 114.72H70.256V148H45.168V57.76H84.72C91.9733 57.76 98.1173 59.04 103.152 61.6C108.187 64.0747 111.984 67.5307 114.544 71.968C117.104 76.32 118.384 81.2267 118.384 86.688C118.384 92.832 116.677 98.2507 113.264 102.944C109.936 107.552 105.029 110.837 98.544 112.8L118.896 148H90.864ZM70.256 97.568H82.672C86.0853 97.568 88.6453 96.7573 90.352 95.136C92.0587 93.5147 92.912 91.168 92.912 88.096C92.912 85.1947 92.016 82.9333 90.224 81.312C88.5173 79.6053 86 78.752 82.672 78.752H70.256V97.568Z" fill="#E5E5E5"/>
<path d="M169.089 148L151.169 114.72H148.481V148H123.393V57.76H162.945C170.198 57.76 176.342 59.04 181.377 61.6C186.412 64.0747 190.209 67.5307 192.769 71.968C195.329 76.32 196.609 81.2267 196.609 86.688C196.609 92.832 194.902 98.2507 191.489 102.944C188.161 107.552 183.254 110.837 176.769 112.8L197.121 148H169.089ZM148.481 97.568H160.897C164.31 97.568 166.87 96.7573 168.577 95.136C170.284 93.5147 171.137 91.168 171.137 88.096C171.137 85.1947 170.241 82.9333 168.449 81.312C166.742 79.6053 164.225 78.752 160.897 78.752H148.481V97.568Z" fill="#FF1515"/>
</g>
<defs>
<clipPath id="clip0_0_1">
<rect width="239" height="209" fill="white"/>
</clipPath>
</defs>
</svg>
